# xmcd
#
# Track frame offsets:
#	150
#	66924
#	131486
#	137733
#	158114
#	203970
#	247892
#	251083
#
# Disc length: 3963 seconds
#
# Revision: 1
# Processed by: cddbd v1.5.2PL0 Copyright (c) Steve Scherf et al.
# Submitted via: audiograbber 1.83.01
#
DISCID=710f7908
DTITLE=Grateful Dead - 73-09-17 Onondaga County War Memorial, Syracuse NY
DYEAR=1900
DGENRE=
TTITLE0=Truckin'
TTITLE1=Eyes Of The World
TTITLE2=WRS Prelude
TTITLE3=WRS Part One
TTITLE4=Let It Grow
TTITLE5=Stella Blue
TTITLE6=Looney Tunes tuning
TTITLE7=Sugar Magnolia
EXTD=
EXTT0=
EXTT1=
EXTT2=
EXTT3=
EXTT4=
EXTT5=
EXTT6=
EXTT7=
PLAYORDER=
